<svg xmlns="http://www.w3.org/2000/svg" width="512" height="512" viewBox="0 0 512 512">
  <g fill="#fff">
    <path d="M209.71 123.18c0 .28 12.28 12.28 27.2 26.55l7.85 7.46 17.2-17.2 17.18-17.19h-34.76c-19.08 0-34.67.2-34.67.38z"/>
    <path d="M112.41 141.22c0 .48 9.92 17.86 29.29 51.3l3.96 6.8 99.1-.19 99.19-.28 16.15-27.87c8.79-15.3 16.25-28.43 16.53-29.1.38-.84-8.78-1.13-43.73-1.13l-44.3-.1-21.93 22.49-22 22.48-21.92-22.48-22.01-22.48-44.12.1c-24.37 0-44.2.18-44.2.46zm44.87 77.65c1.42 3.78 45.44 79.36 46 79.07.3-.19 4.35-6.9 8.89-14.73 22.1-38.45 31.83-55.17 32.68-56.3.76-.86 10.4-1.14 42.42-1.14h41.47l1.89-3.78c1.04-1.98 1.89-3.97 1.89-4.25 0-.28-39.58-.47-87.95-.47-83.41 0-87.95.1-87.29 1.6z"/>
    <path d="M235.03 280.47c-11.34 19.55-20.6 36.27-20.6 36.93 0 1.42 29.48 52.9 30.23 52.9.38-.1 26.64-45.43 70.2-121.1l2.54-4.54h-30.89l-30.98.1-20.5 35.7z"/>
  </g>
</svg>
